<svg width="24" height="25" viewBox="0 0 24 25" fill="none" xmlns="http://www.w3.org/2000/svg">
<path fill-rule="evenodd" clip-rule="evenodd" d="M19 6.72998H5C4.44772 6.72998 4 7.1777 4 7.72998V19.73C4 20.2823 4.44772 20.73 5 20.73H19C19.5523 20.73 20 20.2823 20 19.73V7.72998C20 7.1777 19.5523 6.72998 19 6.72998ZM5 4.72998C3.34315 4.72998 2 6.07313 2 7.72998V19.73C2 21.3868 3.34315 22.73 5 22.73H19C20.6569 22.73 22 21.3868 22 19.73V7.72998C22 6.07313 20.6569 4.72998 19 4.72998H5Z" fill="#353945"/>
<path fill-rule="evenodd" clip-rule="evenodd" d="M10 12.73C9.44772 12.73 9 13.1777 9 13.73C9 14.2823 9.44772 14.73 10 14.73H17C17.5523 14.73 18 14.2823 18 13.73C18 13.1777 17.5523 12.73 17 12.73H10ZM7 16.73C6.44772 16.73 6 17.1777 6 17.73C6 18.2823 6.44772 18.73 7 18.73H13C13.5523 18.73 14 18.2823 14 17.73C14 17.1777 13.5523 16.73 13 16.73H7Z" fill="#353945"/>
<path fill-rule="evenodd" clip-rule="evenodd" d="M7 2.72998C6.44772 2.72998 6 3.1777 6 3.72998V7.72998C6 8.28227 6.44772 8.72998 7 8.72998C7.55228 8.72998 8 8.28227 8 7.72998V3.72998C8 3.1777 7.55228 2.72998 7 2.72998ZM17 2.72998C16.4477 2.72998 16 3.1777 16 3.72998V7.72998C16 8.28227 16.4477 8.72998 17 8.72998C17.5523 8.72998 18 8.28227 18 7.72998V3.72998C18 3.1777 17.5523 2.72998 17 2.72998Z" fill="#353945"/>
</svg>
