<svg width="24" height="25" viewBox="0 0 24 25" fill="none" xmlns="http://www.w3.org/2000/svg">
<path fill-rule="evenodd" clip-rule="evenodd" d="M12 18.73C16.1255 18.73 19.0592 16.1376 20.7773 13.9786C21.3732 13.2298 21.3732 12.2302 20.7773 11.4813C19.0592 9.32237 16.1255 6.72998 12 6.72998C7.87451 6.72998 4.9408 9.32237 3.22274 11.4813C2.62684 12.2302 2.62684 13.2298 3.22274 13.9786C4.9408 16.1376 7.8745 18.73 12 18.73ZM22.3422 15.224C23.5182 13.7462 23.5182 11.7137 22.3422 10.236C20.4739 7.88824 17.0265 4.72998 12 4.72998C6.97347 4.72998 3.52606 7.88824 1.65778 10.236C0.48183 11.7137 0.481829 13.7462 1.65778 15.224C3.52606 17.5717 6.97347 20.73 12 20.73C17.0265 20.73 20.4739 17.5717 22.3422 15.224Z" fill="#353945"/>
<path fill-rule="evenodd" clip-rule="evenodd" d="M14 12.73C14 13.8345 13.1046 14.73 12 14.73C10.8954 14.73 10 13.8345 10 12.73C10 12.7016 10.0006 12.6733 10.0018 12.6452C10.1577 12.7001 10.3253 12.73 10.5 12.73C11.3284 12.73 12 12.0584 12 11.23C12 11.0553 11.9701 10.8876 11.9153 10.7317C11.9434 10.7306 11.9716 10.73 12 10.73C13.1046 10.73 14 11.6254 14 12.73ZM16 12.73C16 14.9391 14.2091 16.73 12 16.73C9.79086 16.73 8 14.9391 8 12.73C8 10.5208 9.79086 8.72998 12 8.72998C14.2091 8.72998 16 10.5208 16 12.73Z" fill="#353945"/>
</svg>
