<svg width="24" height="25" viewBox="0 0 24 25" fill="none" xmlns="http://www.w3.org/2000/svg">
<path d="M2.57999 19.74L2.55999 19.76C2.28999 19.17 2.11999 18.5 2.04999 17.76C2.11999 18.49 2.30999 19.15 2.57999 19.74Z" fill="#353945"/>
<path d="M9 11.1101C10.3144 11.1101 11.38 10.0445 11.38 8.7301C11.38 7.41566 10.3144 6.3501 9 6.3501C7.68556 6.3501 6.62 7.41566 6.62 8.7301C6.62 10.0445 7.68556 11.1101 9 11.1101Z" fill="#353945"/>
<path d="M16.19 2.72998H7.81C4.17 2.72998 2 4.89998 2 8.53998V16.92C2 18.01 2.19 18.96 2.56 19.76C3.42 21.66 5.26 22.73 7.81 22.73H16.19C19.83 22.73 22 20.56 22 16.92V14.63V8.53998C22 4.89998 19.83 2.72998 16.19 2.72998ZM20.37 13.23C19.59 12.56 18.33 12.56 17.55 13.23L13.39 16.8C12.61 17.47 11.35 17.47 10.57 16.8L10.23 16.52C9.52 15.9 8.39 15.84 7.59 16.38L3.85 18.89C3.63 18.33 3.5 17.68 3.5 16.92V8.53998C3.5 5.71998 4.99 4.22998 7.81 4.22998H16.19C19.01 4.22998 20.5 5.71998 20.5 8.53998V13.34L20.37 13.23Z" fill="#353945"/>
</svg>
