<svg width="24" height="25" viewBox="0 0 24 25" fill="none" xmlns="http://www.w3.org/2000/svg">
<path fill-rule="evenodd" clip-rule="evenodd" d="M12.7071 6.36542C14.2692 4.80332 16.8018 4.80332 18.3639 6.36542C19.9261 7.92759 19.9258 10.4604 18.3637 12.0224L16.2426 14.1436C15.8521 14.5341 15.2189 14.5341 14.8284 14.1436C14.4379 13.7531 14.4379 13.1199 14.8284 12.7294L16.9495 10.6082C17.7306 9.82711 17.7307 8.56061 16.9497 7.77963C16.1686 6.99859 14.9023 6.99859 14.1213 7.77963L11.9999 9.90095C11.6094 10.2915 10.9763 10.2915 10.5857 9.90095C10.1952 9.51043 10.1952 8.87726 10.5857 8.48674L12.7071 6.36542ZM15.5354 9.19386C15.926 9.58439 15.926 10.2176 15.5354 10.6081L9.87859 16.2649C9.48806 16.6555 8.8549 16.6555 8.46438 16.2649C8.07385 15.8744 8.07385 15.2412 8.46438 14.8507L14.1212 9.19386C14.5118 8.80334 15.1449 8.80334 15.5354 9.19386ZM9.17152 11.3152C9.56205 11.7057 9.56205 12.3389 9.17152 12.7294L7.0502 14.8507C6.26915 15.6317 6.26915 16.8981 7.0502 17.6791C7.83118 18.4601 9.09768 18.4601 9.8788 17.679L11.9999 15.5578C12.3905 15.1673 13.0236 15.1673 13.4142 15.5578C13.8047 15.9483 13.8047 16.5815 13.4142 16.972L11.293 19.0932C9.73099 20.6552 7.19816 20.6555 5.63599 19.0933C4.07389 17.5312 4.07389 14.9986 5.63599 13.4365L7.75731 11.3152C8.14783 10.9246 8.781 10.9246 9.17152 11.3152Z" fill="#353945"/>
</svg>
