<svg width="24" height="25" viewBox="0 0 24 25" fill="none" xmlns="http://www.w3.org/2000/svg">
<path fill-rule="evenodd" clip-rule="evenodd" d="M2.02264 19.1278L2.74729 15.8669C2.91231 15.1243 3.28569 14.4441 3.82361 13.9062L13.6715 4.05829C15.2336 2.4962 17.7663 2.49619 19.3284 4.05829L20.6715 5.40144C22.2336 6.96353 22.2336 9.49619 20.6715 11.0583L10.8236 20.9062C10.2857 21.4441 9.60552 21.8175 8.8629 21.9825L5.60199 22.7072C3.4585 23.1835 1.54631 21.2713 2.02264 19.1278ZM4.69966 16.3008L3.97501 19.5617C3.81624 20.2762 4.45363 20.9136 5.16813 20.7548L8.42904 20.0302C8.78614 19.9508 9.11436 19.7751 9.37821 19.5225L5.20731 15.3516C4.95472 15.6155 4.77902 15.9437 4.69966 16.3008ZM6.62118 13.9371L10.7928 18.1086L16.3785 12.5229L12.207 8.35129L6.62118 13.9371ZM19.2573 9.64408L17.7928 11.1086L13.6212 6.93707L15.0857 5.47251C15.8668 4.69146 17.1331 4.69146 17.9142 5.4725L19.2573 6.81565C20.0384 7.5967 20.0384 8.86303 19.2573 9.64408Z" fill="#353945"/>
</svg>
