<svg width="24" height="25" viewBox="0 0 24 25" fill="none" xmlns="http://www.w3.org/2000/svg">
<path fill-rule="evenodd" clip-rule="evenodd" d="M5 11.73C5 8.41627 7.68629 5.72998 11 5.72998C14.3137 5.72998 17 8.41627 17 11.73C17 15.0437 14.3137 17.73 11 17.73C7.68629 17.73 5 15.0437 5 11.73ZM11 3.72998C6.58172 3.72998 3 7.3117 3 11.73C3 16.1483 6.58172 19.73 11 19.73C12.8487 19.73 14.551 19.1029 15.9056 18.0498L18.2929 20.4371C18.6834 20.8276 19.3166 20.8276 19.7071 20.4371C20.0976 20.0466 20.0976 19.4134 19.7071 19.0229L17.3199 16.6356C18.3729 15.2809 19 13.5787 19 11.73C19 7.3117 15.4183 3.72998 11 3.72998Z" fill="#353945"/>
</svg>
