<svg width="24" height="25" viewBox="0 0 24 25" fill="none" xmlns="http://www.w3.org/2000/svg">
<path fill-rule="evenodd" clip-rule="evenodd" d="M2 16.73C1.44772 16.73 1 17.1777 1 17.73C1 18.2823 1.44772 18.73 2 18.73H13C13.5523 18.73 14 18.2823 14 17.73C14 17.1777 13.5523 16.73 13 16.73H2ZM19 16.73C18.4477 16.73 18 17.1777 18 17.73C18 18.2823 18.4477 18.73 19 18.73H22C22.5523 18.73 23 18.2823 23 17.73C23 17.1777 22.5523 16.73 22 16.73H19Z" fill="#353945"/>
<path fill-rule="evenodd" clip-rule="evenodd" d="M16 19.73C17.1046 19.73 18 18.8345 18 17.73C18 16.6254 17.1046 15.73 16 15.73C14.8954 15.73 14 16.6254 14 17.73C14 18.8345 14.8954 19.73 16 19.73ZM16 21.73C18.2091 21.73 20 19.9391 20 17.73C20 15.5208 18.2091 13.73 16 13.73C13.7909 13.73 12 15.5208 12 17.73C12 19.9391 13.7909 21.73 16 21.73Z" fill="#353945"/>
<path fill-rule="evenodd" clip-rule="evenodd" d="M2 6.72998C1.44772 6.72998 1 7.1777 1 7.72998C1 8.28227 1.44772 8.72998 2 8.72998H5C5.55228 8.72998 6 8.28227 6 7.72998C6 7.1777 5.55228 6.72998 5 6.72998H2ZM11 6.72998C10.4477 6.72998 10 7.1777 10 7.72998C10 8.28227 10.4477 8.72998 11 8.72998H22C22.5523 8.72998 23 8.28227 23 7.72998C23 7.1777 22.5523 6.72998 22 6.72998H11Z" fill="#353945"/>
<path fill-rule="evenodd" clip-rule="evenodd" d="M8 9.72998C9.10457 9.72998 10 8.83455 10 7.72998C10 6.62541 9.10457 5.72998 8 5.72998C6.89543 5.72998 6 6.62541 6 7.72998C6 8.83455 6.89543 9.72998 8 9.72998ZM8 11.73C10.2091 11.73 12 9.93912 12 7.72998C12 5.52084 10.2091 3.72998 8 3.72998C5.79086 3.72998 4 5.52084 4 7.72998C4 9.93912 5.79086 11.73 8 11.73Z" fill="#353945"/>
</svg>
