<svg width="24" height="25" viewBox="0 0 24 25" fill="none" xmlns="http://www.w3.org/2000/svg">
<path fill-rule="evenodd" clip-rule="evenodd" d="M11.0292 15.7307C11.5811 15.7099 12.0454 16.1404 12.0662 16.6922C12.1132 17.9364 12.1791 18.8445 12.244 19.4956C12.3079 20.1368 12.695 20.5226 13.2345 20.5886C13.8708 20.6663 14.7683 20.73 16 20.73C17.2317 20.73 18.1292 20.6663 18.7655 20.5885C19.3048 20.5226 19.6921 20.1367 19.7559 19.4953C19.8763 18.2868 20 16.1988 20 12.73C20 9.26116 19.8763 7.17319 19.7559 5.96466C19.6921 5.32331 19.3048 4.93735 18.7655 4.87142C18.1292 4.79364 17.2317 4.72998 16 4.72998C14.7683 4.72998 13.8708 4.79363 13.2345 4.87141C12.695 4.93737 12.3079 5.32316 12.244 5.96435C12.1791 6.61543 12.1132 7.52352 12.0662 8.7677C12.0454 9.3196 11.5811 9.7501 11.0292 9.72927C10.4773 9.70843 10.0468 9.24415 10.0676 8.69226C10.1158 7.41522 10.1842 6.46541 10.2538 5.76609C10.4003 4.29593 11.4253 3.07768 12.9919 2.88619C13.7211 2.79705 14.7008 2.72998 16 2.72998C17.2992 2.72998 18.2789 2.79705 19.0082 2.8862C20.5748 3.07772 21.5997 4.29653 21.7461 5.76641C21.875 7.06066 22 9.21845 22 12.73C22 16.2415 21.875 18.3993 21.7461 19.6936C21.5997 21.1634 20.5748 22.3822 19.0082 22.5738C18.2789 22.6629 17.2992 22.73 16 22.73C14.7008 22.73 13.7211 22.6629 12.9919 22.5738C11.4253 22.3823 10.4003 21.164 10.2538 19.6939C10.1842 18.9945 10.1158 18.0447 10.0676 16.7677C10.0468 16.2158 10.4773 15.7515 11.0292 15.7307Z" fill="#353945"/>
<path fill-rule="evenodd" clip-rule="evenodd" d="M7.20711 15.5229C7.59763 15.9134 7.59763 16.5466 7.20711 16.9371C6.81658 17.3276 6.18342 17.3276 5.79289 16.9371L2.29289 13.4371C1.90237 13.0466 1.90237 12.4134 2.29289 12.0229L5.79289 8.52287C6.18342 8.13235 6.81658 8.13235 7.20711 8.52287C7.59763 8.9134 7.59763 9.54656 7.20711 9.93709L5.41421 11.73H15C15.5523 11.73 16 12.1777 16 12.73C16 13.2823 15.5523 13.73 15 13.73L5.41421 13.73L7.20711 15.5229Z" fill="#353945"/>
</svg>
