<svg width="24" height="25" viewBox="0 0 24 25" fill="none" xmlns="http://www.w3.org/2000/svg">
<path fill-rule="evenodd" clip-rule="evenodd" d="M2 5.72998C2 4.07313 3.34315 2.72998 5 2.72998H15C16.6569 2.72998 18 4.07313 18 5.72998V6.72998H19C20.6569 6.72998 22 8.07313 22 9.72998V19.73C22 21.3868 20.6569 22.73 19 22.73H9C7.34315 22.73 6 21.3868 6 19.73V18.73H5C3.34315 18.73 2 17.3868 2 15.73V5.72998ZM8 19.73C8 20.2823 8.44772 20.73 9 20.73H19C19.5523 20.73 20 20.2823 20 19.73V9.72998C20 9.1777 19.5523 8.72998 19 8.72998H9C8.44772 8.72998 8 9.1777 8 9.72998V19.73ZM16 6.72998H9C7.34315 6.72998 6 8.07313 6 9.72998V16.73H5C4.44772 16.73 4 16.2823 4 15.73V5.72998C4 5.1777 4.44772 4.72998 5 4.72998H15C15.5523 4.72998 16 5.1777 16 5.72998V6.72998Z" fill="#353945"/>
</svg>
